<svg data-v-423bf9ae="" xmlns="http://www.w3.org/2000/svg" viewBox="0 0 395 90" class="iconLeft"><!----><!----><!----><g data-v-423bf9ae="" id="323bb0d1-ecb7-4f92-9f36-7e9aa93a1af8" fill="#2e3034" transform="matrix(4.819276813107115,0,0,4.819276813107115,106.9638500838243,3.8192764463828723)"><path d="M7.65 4.71L8.47 4.71L8.47 4.71Q8.60 4.71 8.70 4.79L8.70 4.79L8.70 4.79Q8.80 4.87 8.80 5.11L8.80 5.11L8.80 14.02L8.80 14.02Q8.80 14.53 8.33 14.53L8.33 14.53L5.95 14.53L5.95 14.53Q5.73 14.53 5.58 14.44L5.58 14.44L5.58 14.44Q5.43 14.35 5.32 14.23L5.32 14.23L1.82 10.58L1.82 10.58Q1.88 11.46 1.94 12.21L1.94 12.21L1.94 12.21Q1.96 12.53 1.99 12.84L1.99 12.84L1.99 12.84Q2.02 13.16 2.04 13.43L2.04 13.43L2.04 13.43Q2.06 13.71 2.07 13.91L2.07 13.91L2.07 13.91Q2.09 14.12 2.10 14.21L2.10 14.21L2.10 14.21Q2.11 14.32 2.06 14.42L2.06 14.42L2.06 14.42Q2.01 14.53 1.83 14.53L1.83 14.53L0.96 14.53L0.96 14.53Q0.84 14.53 0.73 14.45L0.73 14.45L0.73 14.45Q0.63 14.37 0.63 14.14L0.63 14.14L0.63 5.22L0.63 5.22Q0.63 4.71 1.19 4.71L1.19 4.71L3.50 4.71L3.50 4.71Q3.76 4.71 3.93 4.82L3.93 4.82L3.93 4.82Q4.11 4.93 4.29 5.11L4.29 5.11L7.62 8.41L7.62 8.41Q7.55 7.59 7.49 6.90L7.49 6.90L7.49 6.90Q7.46 6.61 7.44 6.32L7.44 6.32L7.44 6.32Q7.42 6.02 7.40 5.77L7.40 5.77L7.40 5.77Q7.38 5.51 7.36 5.32L7.36 5.32L7.36 5.32Q7.34 5.13 7.33 5.03L7.33 5.03L7.33 5.03Q7.32 4.92 7.38 4.82L7.38 4.82L7.38 4.82Q7.44 4.71 7.65 4.71L7.65 4.71ZM14.01 14.77L14.01 14.77L14.01 14.77Q13.50 14.77 12.99 14.68L12.99 14.68L12.99 14.68Q12.48 14.60 12.01 14.42L12.01 14.42L12.01 14.42Q11.54 14.25 11.14 13.96L11.14 13.96L11.14 13.96Q10.73 13.67 10.44 13.25L10.44 13.25L10.44 13.25Q10.14 12.84 9.97 12.29L9.97 12.29L9.97 12.29Q9.80 11.74 9.80 11.03L9.80 11.03L9.80 11.03Q9.80 10.33 9.97 9.78L9.97 9.78L9.97 9.78Q10.14 9.23 10.44 8.81L10.44 8.81L10.44 8.81Q10.73 8.39 11.14 8.10L11.14 8.10L11.14 8.10Q11.54 7.81 12.01 7.63L12.01 7.63L12.01 7.63Q12.48 7.45 12.99 7.37L12.99 7.37L12.99 7.37Q13.50 7.29 14.01 7.29L14.01 7.29L14.01 7.29Q14.49 7.29 14.98 7.35L14.98 7.35L14.98 7.35Q15.48 7.40 15.94 7.56L15.94 7.56L15.94 7.56Q16.41 7.71 16.83 7.97L16.83 7.97L16.83 7.97Q17.24 8.24 17.55 8.65L17.55 8.65L17.55 8.65Q17.86 9.06 18.04 9.63L18.04 9.63L18.04 9.63Q18.22 10.20 18.22 10.97L18.22 10.97L18.22 10.97Q18.22 11.76 18.05 12.36L18.05 12.36L18.05 12.36Q17.87 12.95 17.56 13.37L17.56 13.37L17.56 13.37Q17.25 13.79 16.84 14.06L16.84 14.06L16.84 14.06Q16.43 14.33 15.96 14.49L15.96 14.49L15.96 14.49Q15.49 14.64 14.99 14.70L14.99 14.70L14.99 14.70Q14.49 14.77 14.01 14.77ZM16.11 13.13L16.11 13.13L16.11 13.13Q16.32 13.13 16.53 13.03L16.53 13.03L16.53 13.03Q16.74 12.94 16.90 12.70L16.90 12.70L16.90 12.70Q17.06 12.46 17.16 12.04L17.16 12.04L17.16 12.04Q17.26 11.62 17.26 10.97L17.26 10.97L17.26 10.97Q17.26 10.36 17.16 9.96L17.16 9.96L17.16 9.96Q17.06 9.56 16.90 9.33L16.90 9.33L16.90 9.33Q16.73 9.11 16.53 9.02L16.53 9.02L16.53 9.02Q16.32 8.93 16.11 8.93L16.11 8.93L16.11 8.93Q15.95 8.93 15.75 9.00L15.75 9.00L15.75 9.00Q15.54 9.06 15.37 9.29L15.37 9.29L15.37 9.29Q15.20 9.51 15.08 9.92L15.08 9.92L15.08 9.92Q14.96 10.34 14.96 11.03L14.96 11.03L14.96 11.03Q14.96 11.72 15.06 12.13L15.06 12.13L15.06 12.13Q15.16 12.55 15.31 12.77L15.31 12.77L15.31 12.77Q15.47 12.99 15.68 13.06L15.68 13.06L15.68 13.06Q15.89 13.13 16.11 13.13ZM23.41 13.58L23.41 4.28L23.41 4.28Q23.41 4.05 23.45 3.87L23.45 3.87L23.45 3.87Q23.50 3.68 23.61 3.57L23.61 3.57L23.61 3.57Q23.73 3.45 23.93 3.39L23.93 3.39L23.93 3.39Q24.14 3.33 24.47 3.33L24.47 3.33L27.46 3.33L27.46 3.33Q27.77 3.33 27.97 3.39L27.97 3.39L27.97 3.39Q28.16 3.45 28.27 3.56L28.27 3.56L28.27 3.56Q28.38 3.68 28.41 3.86L28.41 3.86L28.41 3.86Q28.45 4.03 28.45 4.27L28.45 4.27L28.45 13.59L28.45 13.59Q28.45 13.82 28.41 14.00L28.41 14.00L28.41 14.00Q28.37 14.17 28.26 14.29L28.26 14.29L28.26 14.29Q28.15 14.41 27.96 14.47L27.96 14.47L27.96 14.47Q27.76 14.53 27.45 14.53L27.45 14.53L24.47 14.53L24.47 14.53Q24.14 14.53 23.93 14.46L23.93 14.46L23.93 14.46Q23.73 14.40 23.61 14.29L23.61 14.29L23.61 14.29Q23.50 14.17 23.45 13.99L23.45 13.99L23.45 13.99Q23.41 13.82 23.41 13.58L23.41 13.58ZM29.71 13.58L29.71 8.48L29.71 8.48Q29.71 8.24 29.75 8.06L29.75 8.06L29.75 8.06Q29.79 7.88 29.91 7.77L29.91 7.77L29.91 7.77Q30.02 7.65 30.23 7.59L30.23 7.59L30.23 7.59Q30.43 7.53 30.76 7.53L30.76 7.53L33.76 7.53L33.76 7.53Q34.07 7.53 34.27 7.58L34.27 7.58L34.27 7.58Q34.46 7.64 34.57 7.76L34.57 7.76L34.57 7.76Q34.68 7.88 34.71 8.05L34.71 8.05L34.71 8.05Q34.75 8.23 34.75 8.48L34.75 8.48L34.75 13.59L34.75 13.59Q34.75 13.82 34.71 14.00L34.71 14.00L34.71 14.00Q34.68 14.17 34.57 14.29L34.57 14.29L34.57 14.29Q34.46 14.41 34.27 14.47L34.27 14.47L34.27 14.47Q34.07 14.53 33.76 14.53L33.76 14.53L30.76 14.53L30.76 14.53Q30.43 14.53 30.23 14.46L30.23 14.46L30.23 14.46Q30.02 14.40 29.91 14.29L29.91 14.29L29.91 14.29Q29.79 14.17 29.75 13.99L29.75 13.99L29.75 13.99Q29.71 13.82 29.71 13.58L29.71 13.58ZM29.96 4.60L29.96 4.60L29.96 4.60Q29.96 4.13 30.14 3.71L30.14 3.71L30.14 3.71Q30.32 3.29 30.63 2.99L30.63 2.99L30.63 2.99Q30.94 2.68 31.36 2.50L31.36 2.50L31.36 2.50Q31.77 2.32 32.25 2.32L32.25 2.32L32.25 2.32Q32.71 2.32 33.12 2.50L33.12 2.50L33.12 2.50Q33.54 2.68 33.84 2.99L33.84 2.99L33.84 2.99Q34.15 3.29 34.33 3.71L34.33 3.71L34.33 3.71Q34.51 4.13 34.51 4.60L34.51 4.60L34.51 4.60Q34.51 5.07 34.33 5.48L34.33 5.48L34.33 5.48Q34.15 5.89 33.84 6.20L33.84 6.20L33.84 6.20Q33.54 6.51 33.12 6.69L33.12 6.69L33.12 6.69Q32.71 6.87 32.25 6.87L32.25 6.87L32.25 6.87Q31.77 6.87 31.36 6.69L31.36 6.69L31.36 6.69Q30.94 6.51 30.63 6.20L30.63 6.20L30.63 6.20Q30.32 5.89 30.14 5.48L30.14 5.48L30.14 5.48Q29.96 5.07 29.96 4.60ZM36.00 13.58L36.00 8.48L36.00 8.48Q36.00 8.24 36.05 8.06L36.05 8.06L36.05 8.06Q36.09 7.88 36.20 7.77L36.20 7.77L36.20 7.77Q36.32 7.65 36.52 7.59L36.52 7.59L36.52 7.59Q36.73 7.53 37.06 7.53L37.06 7.53L39.85 7.53L39.85 7.53Q40.16 7.53 40.37 7.59L40.37 7.59L40.37 7.59Q40.58 7.65 40.68 7.80L40.68 7.80L40.68 7.80Q40.77 7.73 40.90 7.66L40.90 7.66L40.90 7.66Q41.03 7.59 41.18 7.53L41.18 7.53L41.18 7.53Q41.34 7.46 41.51 7.43L41.51 7.43L41.51 7.43Q41.69 7.39 41.87 7.39L41.87 7.39L41.87 7.39Q42.50 7.39 42.86 7.81L42.86 7.81L42.86 7.81Q42.96 7.74 43.07 7.67L43.07 7.67L43.07 7.67Q43.20 7.59 43.37 7.53L43.37 7.53L43.37 7.53Q43.53 7.46 43.72 7.43L43.72 7.43L43.72 7.43Q43.90 7.39 44.08 7.39L44.08 7.39L44.08 7.39Q44.74 7.39 45.11 7.84L45.11 7.84L45.11 7.84Q45.47 8.29 45.47 9.17L45.47 9.17L45.47 14.21L45.47 14.21Q45.47 14.32 45.44 14.39L45.44 14.39L45.44 14.39Q45.41 14.45 45.36 14.48L45.36 14.48L45.36 14.48Q45.32 14.51 45.25 14.52L45.25 14.52L45.25 14.52Q45.19 14.53 45.13 14.53L45.13 14.53L44.70 14.53L44.70 14.53Q44.52 14.53 44.47 14.42L44.47 14.42L44.47 14.42Q44.42 14.32 44.42 14.21L44.42 14.21L44.42 9.10L44.42 9.10Q44.42 8.71 44.28 8.50L44.28 8.50L44.28 8.50Q44.14 8.30 43.83 8.30L43.83 8.30L43.83 8.30Q43.75 8.30 43.66 8.33L43.66 8.33L43.66 8.33Q43.57 8.36 43.48 8.41L43.48 8.41L43.48 8.41Q43.39 8.46 43.32 8.51L43.32 8.51L43.32 8.51Q43.26 8.56 43.21 8.60L43.21 8.60L43.21 8.60Q43.26 8.86 43.26 9.17L43.26 9.17L43.26 14.21L43.26 14.21Q43.26 14.32 43.23 14.39L43.23 14.39L43.23 14.39Q43.20 14.45 43.15 14.48L43.15 14.48L43.15 14.48Q43.11 14.51 43.05 14.52L43.05 14.52L43.05 14.52Q42.98 14.53 42.92 14.53L42.92 14.53L42.49 14.53L42.49 14.53Q42.31 14.53 42.26 14.42L42.26 14.42L42.26 14.42Q42.21 14.32 42.21 14.21L42.21 14.21L42.21 9.10L42.21 9.10Q42.21 8.71 42.06 8.50L42.06 8.50L42.06 8.50Q41.92 8.30 41.62 8.30L41.62 8.30L41.62 8.30Q41.46 8.30 41.30 8.38L41.30 8.38L41.30 8.38Q41.14 8.47 41.04 8.57L41.04 8.57L41.04 13.57L41.04 13.57Q41.04 13.81 41.00 13.99L41.00 13.99L41.00 13.99Q40.96 14.16 40.84 14.28L40.84 14.28L40.84 14.28Q40.73 14.40 40.52 14.46L40.52 14.46L40.52 14.46Q40.32 14.53 39.99 14.53L39.99 14.53L37.06 14.53L37.06 14.53Q36.73 14.53 36.52 14.46L36.52 14.46L36.52 14.46Q36.32 14.40 36.20 14.29L36.20 14.29L36.20 14.29Q36.09 14.17 36.05 13.99L36.05 13.99L36.05 13.99Q36.00 13.82 36.00 13.58L36.00 13.58ZM46.73 13.58L46.73 8.48L46.73 8.48Q46.73 8.24 46.77 8.06L46.77 8.06L46.77 8.06Q46.81 7.88 46.93 7.77L46.93 7.77L46.93 7.77Q47.04 7.65 47.25 7.59L47.25 7.59L47.25 7.59Q47.46 7.53 47.78 7.53L47.78 7.53L50.78 7.53L50.78 7.53Q51.09 7.53 51.29 7.58L51.29 7.58L51.29 7.58Q51.48 7.64 51.59 7.76L51.59 7.76L51.59 7.76Q51.70 7.88 51.73 8.05L51.73 8.05L51.73 8.05Q51.77 8.23 51.77 8.48L51.77 8.48L51.77 13.59L51.77 13.59Q51.77 13.82 51.73 14.00L51.73 14.00L51.73 14.00Q51.70 14.17 51.59 14.29L51.59 14.29L51.59 14.29Q51.48 14.41 51.29 14.47L51.29 14.47L51.29 14.47Q51.09 14.53 50.78 14.53L50.78 14.53L47.78 14.53L47.78 14.53Q47.46 14.53 47.25 14.46L47.25 14.46L47.25 14.46Q47.04 14.40 46.93 14.29L46.93 14.29L46.93 14.29Q46.81 14.17 46.77 13.99L46.77 13.99L46.77 13.99Q46.73 13.82 46.73 13.58L46.73 13.58ZM46.98 4.60L46.98 4.60L46.98 4.60Q46.98 4.13 47.16 3.71L47.16 3.71L47.16 3.71Q47.35 3.29 47.65 2.99L47.65 2.99L47.65 2.99Q47.96 2.68 48.38 2.50L48.38 2.50L48.38 2.50Q48.79 2.32 49.27 2.32L49.27 2.32L49.27 2.32Q49.73 2.32 50.15 2.50L50.15 2.50L50.15 2.50Q50.56 2.68 50.87 2.99L50.87 2.99L50.87 2.99Q51.17 3.29 51.35 3.71L51.35 3.71L51.35 3.71Q51.54 4.13 51.54 4.60L51.54 4.60L51.54 4.60Q51.54 5.07 51.35 5.48L51.35 5.48L51.35 5.48Q51.17 5.89 50.87 6.20L50.87 6.20L50.87 6.20Q50.56 6.51 50.15 6.69L50.15 6.69L50.15 6.69Q49.73 6.87 49.27 6.87L49.27 6.87L49.27 6.87Q48.79 6.87 48.38 6.69L48.38 6.69L48.38 6.69Q47.96 6.51 47.65 6.20L47.65 6.20L47.65 6.20Q47.35 5.89 47.16 5.48L47.16 5.48L47.16 5.48Q46.98 5.07 46.98 4.60ZM53.25 9.77L52.54 9.77L52.54 9.77Q52.40 9.77 52.40 9.62L52.40 9.62L52.40 9.07L52.40 9.07Q52.40 8.93 52.54 8.93L52.54 8.93L53.25 8.93L53.25 7.38L53.25 7.38Q53.25 7.27 53.28 7.17L53.28 7.17L53.28 7.17Q53.31 7.07 53.45 7.01L53.45 7.01L57.22 5.62L57.22 5.62Q57.48 5.52 57.65 5.48L57.65 5.48L57.65 5.48Q57.83 5.43 57.96 5.43L57.96 5.43L57.96 5.43Q58.00 5.43 58.06 5.44L58.06 5.44L58.06 5.44Q58.12 5.46 58.17 5.50L58.17 5.50L58.17 5.50Q58.22 5.54 58.26 5.62L58.26 5.62L58.26 5.62Q58.29 5.69 58.29 5.79L58.29 5.79L58.29 8.93L59.52 8.93L59.52 8.93Q59.66 8.93 59.66 9.07L59.66 9.07L59.66 9.62L59.66 9.62Q59.66 9.77 59.52 9.77L59.52 9.77L58.29 9.77L58.29 12.52L58.29 12.52Q58.29 13.01 58.45 13.21L58.45 13.21L58.45 13.21Q58.61 13.41 58.95 13.41L58.95 13.41L58.95 13.41Q59.02 13.41 59.10 13.39L59.10 13.39L59.10 13.39Q59.19 13.37 59.26 13.35L59.26 13.35L59.26 13.35Q59.33 13.34 59.39 13.32L59.39 13.32L59.39 13.32Q59.45 13.30 59.49 13.30L59.49 13.30L59.49 13.30Q59.57 13.30 59.57 13.39L59.57 13.39L59.57 13.92L59.57 13.92Q59.57 14.05 59.51 14.10L59.51 14.10L59.51 14.10Q59.46 14.15 59.42 14.16L59.42 14.16L59.42 14.16Q59.16 14.27 58.81 14.38L58.81 14.38L58.81 14.38Q58.45 14.49 58.05 14.58L58.05 14.58L58.05 14.58Q57.64 14.66 57.19 14.71L57.19 14.71L57.19 14.71Q56.74 14.77 56.29 14.77L56.29 14.77L56.29 14.77Q55.64 14.77 55.08 14.70L55.08 14.70L55.08 14.70Q54.52 14.64 54.12 14.40L54.12 14.40L54.12 14.40Q53.71 14.17 53.48 13.71L53.48 13.71L53.48 13.71Q53.25 13.25 53.25 12.47L53.25 12.47L53.25 9.77Z"></path></g><!----><g data-v-423bf9ae="" id="e7e5d933-cda7-4037-a412-e21bd8813626" transform="matrix(2.8125,0,0,2.8125,0,0)" stroke="none" fill="#488eff"><path d="M15.965 16.258l.707-.707 10.39 10.39-.707.707z"></path><path d="M4.935 26.357L26.018 5.274l.707.707L5.642 27.065z"></path><path d="M31 1v4.194h-4.194V1H31m1-1h-6.194v6.194H32V0zM31 26.806V31h-4.194v-4.194H31m1-1h-6.194V32H32v-6.194zM5.194 26.806V31H1v-4.194h4.194m1-1H0V32h6.194v-6.194z"></path></g><!----></svg>